{"glyphs":{":":{"x_min":0,"x_max":306,"ha":306,"o":"m 57 423 q 57 464 84 491 q 112 519 152 519 q 192 519 219 491 q 247 463 247 423 q 247 383 219 356 q 192 328 152 328 q 112 328 84 355 q 57 383 57 423 z m 57 81 q 57 122 84 149 q 112 177 152 177 q 192 177 219 149 q 247 122 247 81 q 247 41 219 13 q 192 -14 152 -14 q 112 -14 84 13 q 57 41 57 81 z"},"$":{"x_min":0,"x_max":593,"ha":593,"o":"m 253 -1 q 150 11 113 46 q 75 82 75 162 q 75 195 84 211 q 92 226 111 226 q 135 226 164 176 q 172 159 178 150 q 202 110 232 91 q 262 72 298 72 q 331 72 355 93 q 379 115 379 144 q 379 171 359 193 q 340 215 280 248 q 270 253 249 264 q 169 306 133 337 q 107 359 94 390 q 81 421 81 459 q 81 528 127 574 q 173 621 253 631 l 253 704 q 253 717 258 722 q 263 727 278 727 l 313 727 q 327 727 333 722 q 338 717 338 703 l 338 631 q 424 625 461 594 q 497 562 497 496 q 497 474 487 461 q 476 448 459 448 q 436 448 402 495 q 394 507 389 513 q 372 536 350 549 q 328 561 305 561 q 273 561 253 541 q 233 521 233 489 q 233 436 358 371 l 370 365 q 470 312 500 273 q 531 234 531 178 q 531 106 478 57 q 426 7 338 -2 l 338 -88 q 338 -102 333 -107 q 328 -112 313 -112 l 278 -112 q 264 -112 258 -107 q 253 -102 253 -88 z"},"?":{"x_min":0,"x_max":539,"ha":539,"o":"m 158 77 q 158 118 185 145 q 212 172 253 172 q 293 172 321 145 q 348 117 348 77 q 348 37 320 9 q 292 -19 253 -19 q 213 -19 186 9 q 158 37 158 77 z m 250 231 q 225 231 212 248 q 199 264 199 297 q 199 332 208 362 q 216 392 234 421 q 242 433 258 457 q 316 538 316 595 q 316 630 301 648 q 286 667 258 667 q 226 667 208 649 q 191 631 184 589 q 176 546 157 525 q 138 505 104 505 q 75 505 59 523 q 43 542 43 574 q 43 646 105 694 q 167 741 265 741 q 363 741 425 693 q 488 645 488 572 q 488 542 475 513 q 462 484 438 459 q 423 444 378 409 q 333 375 316 347 q 303 327 300 289 q 299 276 298 270 q 293 249 282 240 q 271 231 250 231 z"},"<":{"x_min":0,"x_max":833,"ha":833,"o":"m 704 593 l 704 469 l 287 298 l 704 128 l 704 4 l 129 241 l 129 355 z"},"'":{"x_min":0,"x_max":181,"ha":181,"o":"m 101 413 l 80 413 l 38 639 q 37 646 36 650 q 36 654 36 657 q 36 683 51 699 q 66 715 91 715 q 116 715 130 699 q 145 684 145 658 q 145 654 145 650 q 144 646 143 639 z"},"=":{"x_min":0,"x_max":833,"ha":833,"o":"m 124 245 l 709 245 l 709 133 l 124 133 z m 124 464 l 709 464 l 709 351 l 124 351 z"},"a":{"x_min":0,"x_max":562,"ha":562,"o":"m 339 305 l 339 352 q 339 400 327 419 q 315 437 285 437 q 253 437 215 400 q 212 396 210 395 q 208 394 205 390 q 152 341 112 341 q 86 341 71 355 q 56 369 56 394 q 56 446 127 486 q 199 525 303 525 q 408 525 457 485 q 505 444 505 357 q 505 331 503 290 q 501 250 501 235 l 501 162 q 501 141 503 131 q 506 121 512 117 q 518 113 544 105 q 571 96 571 78 q 571 60 558 44 q 545 28 518 12 q 496 0 474 -7 q 452 -14 433 -14 q 406 -14 379 14 q 352 42 349 42 q 347 42 335 34 q 271 -14 198 -14 q 119 -14 71 29 q 23 71 23 142 q 23 222 84 267 q 145 311 255 311 q 272 311 293 310 q 314 308 339 305 z m 338 155 l 338 233 q 329 235 319 237 q 309 238 297 238 q 251 238 227 217 q 203 197 203 158 q 203 125 221 106 q 239 87 270 87 q 305 87 321 104 q 338 120 338 155 z"},"L":{"x_min":0,"x_max":627,"ha":627,"o":"m 185 0 l 172 0 q 72 0 48 10 q 24 20 24 47 q 24 73 53 88 q 83 103 86 107 q 93 117 97 192 q 101 266 101 392 q 101 492 97 552 q 93 612 86 622 q 82 627 53 642 q 24 656 24 682 q 24 711 56 722 q 87 733 185 733 q 283 733 314 722 q 346 711 346 682 q 346 656 317 642 q 289 627 285 622 q 277 611 273 539 q 269 467 269 329 q 269 283 271 236 q 271 226 271 224 q 271 179 276 146 q 281 112 287 106 q 292 101 312 99 q 332 96 368 96 q 424 96 458 108 q 493 121 508 146 q 520 165 533 199 q 551 245 573 245 q 598 245 609 228 q 619 211 619 169 q 619 96 600 42 q 580 -12 557 -12 q 555 -12 544 -9 q 510 0 477 0 z"},"3":{"x_min":0,"x_max":593,"ha":593,"o":"m 382 333 l 382 326 q 460 307 500 262 q 540 217 540 149 q 540 39 445 -33 q 349 -104 199 -104 q 107 -104 52 -81 q -3 -59 -3 -22 q -3 -4 8 5 q 19 14 40 14 q 51 14 102 0 q 153 -14 193 -14 q 268 -14 314 24 q 361 62 361 122 q 361 181 321 213 q 281 245 208 245 q 192 245 171 241 q 150 238 145 238 q 128 238 121 252 q 113 266 113 297 q 113 309 122 316 q 132 324 164 334 q 235 356 268 389 q 301 422 301 469 q 301 508 275 531 q 250 553 206 553 q 169 553 122 531 q 76 510 62 510 q 46 510 36 520 q 26 529 26 544 q 26 584 90 615 q 155 645 248 645 q 353 645 415 599 q 477 553 477 477 q 477 436 452 398 q 427 360 382 333 z"},";":{"x_min":0,"x_max":306,"ha":306,"o":"m 64 83 q 64 122 89 149 q 114 176 149 176 q 195 176 221 140 q 248 104 248 41 q 248 0 232 -46 q 217 -92 186 -142 q 159 -186 146 -197 q 133 -208 119 -208 q 98 -208 85 -200 q 72 -192 72 -180 q 72 -174 87 -151 q 99 -134 106 -123 q 125 -91 135 -67 q 144 -44 144 -28 q 144 -14 127 -8 q 119 -5 114 -2 q 87 14 76 34 q 64 54 64 83 z m 57 423 q 57 464 84 491 q 112 519 152 519 q 192 519 219 491 q 247 463 247 423 q 247 383 219 356 q 192 328 152 328 q 112 328 84 355 q 57 383 57 423 z"},"J":{"x_min":0,"x_max":582,"ha":582,"o":"m 494 224 q 494 100 434 40 q 375 -19 249 -19 q 136 -19 71 27 q 5 74 5 153 q 5 202 35 233 q 64 264 112 264 q 153 264 177 240 q 202 217 202 178 q 202 165 198 144 q 194 124 194 117 q 194 97 208 84 q 223 71 246 71 q 292 71 309 108 q 326 145 326 275 q 326 413 322 504 q 318 596 311 616 q 308 626 284 638 l 281 639 q 260 648 253 658 q 246 667 246 682 q 246 711 279 723 q 311 734 407 734 q 503 734 535 723 q 568 711 568 682 q 568 656 539 642 q 511 627 507 622 q 500 612 496 557 q 492 501 492 417 q 492 388 493 323 q 494 259 494 224 z"},"V":{"x_min":0,"x_max":752,"ha":752,"o":"m 379 -15 q 352 -15 323 48 q 320 55 319 58 q 215 280 118 528 q 104 565 98 578 q 82 619 48 631 q 44 632 42 633 q 21 641 9 653 q -2 666 -2 681 q -2 709 36 721 q 75 733 171 733 q 260 733 293 722 q 326 710 326 683 q 326 673 322 664 q 317 656 309 651 q 304 648 295 644 q 275 633 275 622 q 275 603 349 421 l 364 384 q 385 331 400 303 q 414 276 420 276 q 428 276 458 346 q 464 358 467 365 q 525 499 545 549 q 565 600 565 609 q 565 617 561 623 q 556 629 547 635 q 542 638 531 643 q 500 657 500 682 q 500 709 530 721 q 560 733 630 733 q 693 733 724 720 q 755 708 755 683 q 755 655 709 637 q 704 635 701 634 q 671 622 651 568 q 648 560 647 556 q 591 414 535 283 q 479 152 424 32 q 409 0 401 -7 q 392 -15 379 -15 z"},"\"":{"x_min":0,"x_max":350,"ha":350,"o":"m 270 413 l 248 413 l 207 639 q 206 646 205 650 q 205 654 205 657 q 205 684 219 699 q 234 715 259 715 q 284 715 298 699 q 313 684 313 658 q 313 650 313 646 q 312 642 312 639 z m 101 413 l 80 413 l 38 639 q 37 646 36 650 q 36 654 36 657 q 36 684 51 699 q 65 715 90 715 q 115 715 130 699 q 145 684 145 658 q 145 654 145 650 q 144 646 143 639 z"},"7":{"x_min":0,"x_max":593,"ha":593,"o":"m 370 409 q 373 415 377 425 q 399 470 399 480 q 399 492 389 498 q 378 504 356 504 l 203 504 q 170 504 153 500 q 135 497 126 489 q 119 483 103 456 q 86 428 69 428 q 51 428 42 439 q 33 451 33 473 q 33 496 40 526 q 47 557 60 591 q 71 621 84 635 q 97 650 111 650 q 114 650 123 646 q 160 632 204 632 l 509 632 q 542 632 554 625 q 566 618 566 600 q 566 587 553 552 q 550 545 549 541 l 328 -75 q 315 -110 304 -120 q 293 -129 274 -129 q 216 -129 179 -115 q 143 -100 143 -78 q 143 -62 158 -32 q 160 -28 161 -25 z"},"S":{"x_min":0,"x_max":634,"ha":634,"o":"m 441 721 q 453 729 463 734 q 474 738 484 738 q 520 738 555 684 q 591 631 591 571 q 591 545 578 531 q 566 516 545 516 q 515 516 473 567 l 471 570 q 435 615 405 632 q 375 649 336 649 q 289 649 261 627 q 233 604 233 567 q 233 505 378 442 q 396 434 406 430 q 521 380 564 330 q 607 281 607 206 q 607 105 528 44 q 448 -17 316 -17 q 240 -17 172 0 q 105 17 75 41 q 57 55 42 98 q 28 141 28 187 q 28 221 40 239 q 51 256 74 256 q 106 256 140 197 q 153 175 161 163 q 188 121 226 100 q 263 79 309 79 q 354 79 383 104 q 412 129 412 166 q 412 201 390 225 q 368 250 292 285 q 282 290 262 299 q 159 344 109 387 q 77 415 60 451 q 44 488 44 532 q 44 622 119 681 q 193 741 309 741 q 338 741 371 736 q 404 731 441 721 z"},"}":{"x_min":0,"x_max":500,"ha":500,"o":"m 84 740 l 90 740 q 202 740 243 704 q 285 668 285 571 l 285 480 q 285 398 312 367 q 338 337 413 330 l 413 291 q 338 284 312 253 q 285 223 285 141 l 285 50 q 285 -47 243 -83 q 202 -119 90 -119 l 84 -119 l 84 -88 q 138 -86 158 -61 q 178 -36 178 41 l 178 105 q 178 215 203 255 q 228 294 293 310 q 228 327 203 366 q 178 406 178 516 l 178 580 q 178 657 158 682 q 138 707 84 708 z"},"Z":{"x_min":0,"x_max":667,"ha":667,"o":"m 365 568 l 367 571 q 388 603 388 612 q 388 622 371 626 q 354 630 313 630 l 234 630 q 193 630 177 623 q 160 616 146 594 q 137 581 125 554 q 103 503 75 503 q 56 503 47 518 q 38 533 38 565 q 38 597 46 634 q 54 670 69 705 q 78 726 87 734 q 97 742 112 742 q 113 742 121 741 q 170 731 228 731 l 523 731 q 601 731 620 723 q 640 716 640 696 q 640 683 627 658 q 615 634 573 571 l 305 166 q 293 149 289 139 q 284 129 284 121 q 284 112 300 107 q 315 103 346 103 l 438 103 q 481 103 501 111 q 520 119 535 142 q 543 154 556 181 q 582 235 609 235 q 627 235 636 220 q 645 206 645 177 q 645 143 637 104 q 630 64 616 27 q 608 6 599 -3 q 590 -12 577 -12 q 576 -12 571 -11 q 532 0 470 0 l 92 0 q 59 0 44 9 q 29 19 29 39 q 29 64 62 112 q 64 117 66 119 z"},"x":{"x_min":0,"x_max":595,"ha":595,"o":"m 338 355 q 339 355 340 354 q 342 354 342 354 q 343 354 344 355 q 350 362 359 375 q 397 422 397 431 q 397 433 388 443 q 380 453 380 466 q 380 490 407 501 q 435 512 496 512 q 542 512 564 502 q 586 491 586 470 q 586 446 541 429 q 518 420 504 414 q 481 403 457 377 q 432 352 391 294 q 391 293 390 293 q 390 292 390 291 q 390 290 390 289 q 391 288 391 287 q 436 221 474 171 q 513 120 530 103 q 539 94 568 81 q 598 67 598 44 q 598 20 564 8 q 530 -3 454 -3 q 370 -3 340 8 q 309 18 309 44 q 309 55 323 65 q 337 75 337 77 q 337 86 318 114 q 299 142 259 193 l 255 193 q 216 144 198 117 q 179 90 179 83 q 179 76 188 63 q 197 51 197 43 q 197 19 172 8 q 148 -3 92 -3 q 40 -3 19 6 q -1 15 -1 36 q -1 62 43 77 q 67 85 78 92 q 98 105 130 146 q 163 187 207 255 q 208 255 208 256 q 208 257 208 258 q 208 260 208 261 q 208 262 207 262 q 147 346 121 379 q 95 411 82 419 q 76 422 61 427 q 23 437 23 463 q 23 490 56 502 q 88 513 171 513 q 241 513 271 502 q 300 491 300 466 q 300 458 292 447 q 283 437 283 434 q 283 428 296 409 q 309 391 338 355 z"},")":{"x_min":0,"x_max":391,"ha":391,"o":"m 344 293 q 344 188 303 94 q 262 0 183 -74 q 144 -111 101 -133 q 59 -155 28 -155 q 13 -155 5 -149 q -3 -144 -3 -133 q -3 -124 21 -105 q 45 -86 59 -73 q 118 -17 145 70 q 172 157 172 293 q 172 415 150 496 q 128 578 81 635 q 61 660 29 685 q -3 709 -3 718 q -3 729 5 735 q 13 741 28 741 q 59 741 101 719 q 144 697 183 660 q 262 585 303 492 q 344 398 344 293 z"},"&":{"x_min":0,"x_max":880,"ha":880,"o":"m 657 383 q 696 360 716 326 q 736 292 736 246 q 736 201 717 159 q 698 117 663 83 q 613 34 541 9 q 469 -17 383 -17 q 230 -17 136 55 q 42 128 42 244 q 42 308 73 360 q 103 412 166 456 l 166 465 q 145 486 135 512 q 124 538 124 568 q 124 642 187 693 q 250 743 344 743 q 410 743 454 719 q 499 696 499 664 q 499 648 487 637 q 476 627 457 627 q 446 627 418 634 q 390 640 372 640 q 333 640 309 619 q 285 597 285 563 q 285 540 297 521 q 309 502 332 487 q 341 481 357 475 q 380 465 380 456 q 380 437 360 412 q 339 387 322 387 q 313 387 301 391 q 288 395 271 403 q 252 376 242 347 q 233 317 233 283 q 233 196 290 141 q 347 86 436 86 q 502 86 543 118 q 585 150 585 200 q 585 237 565 261 q 545 285 515 285 q 497 285 481 276 q 465 268 454 251 q 450 245 446 232 q 441 216 429 216 q 408 216 395 232 q 382 248 382 274 q 382 307 411 336 q 441 366 528 412 q 552 424 594 446 q 756 529 756 578 q 756 597 743 609 q 730 620 709 620 q 701 620 687 616 q 673 612 668 612 q 654 612 647 619 q 640 626 640 641 q 640 675 674 700 q 708 724 759 724 q 817 724 853 689 q 889 654 889 597 q 889 531 835 480 q 780 430 657 383 z"},"_":{"x_min":0,"x_max":500,"ha":500,"o":"m 0 -119 l 500 -119 l 500 -236 l 0 -236 z"},"v":{"x_min":0,"x_max":606,"ha":606,"o":"m 513 513 q 567 513 594 501 q 621 489 621 466 q 621 445 585 430 q 576 425 571 423 q 543 410 520 361 q 516 351 513 346 q 496 312 467 250 q 340 -13 303 -13 q 261 -13 129 275 q 109 319 98 343 q 78 387 69 401 q 61 415 52 419 q 45 422 33 426 q -3 438 -3 463 q -3 490 31 502 q 64 513 153 513 q 229 513 258 502 q 288 492 288 466 q 288 451 268 438 q 248 425 248 417 q 248 409 256 388 q 265 367 289 314 l 299 292 q 339 206 347 206 q 350 206 357 218 q 364 230 382 265 q 417 334 431 367 q 445 400 445 410 q 445 417 420 431 q 396 445 396 466 q 396 490 424 502 q 453 513 513 513 z"},"O":{"x_min":0,"x_max":815,"ha":815,"o":"m 591 288 q 591 359 572 427 q 553 494 519 543 q 486 591 449 615 q 411 640 371 640 q 304 640 264 583 q 223 526 223 431 q 223 361 242 295 q 261 229 297 175 q 328 129 364 106 q 401 83 443 83 q 510 83 551 139 q 591 194 591 288 z m 409 -20 q 347 -20 290 -2 q 233 16 185 50 q 109 104 69 187 q 29 270 29 373 q 29 438 47 495 q 65 552 101 600 q 150 666 232 704 q 313 741 409 741 q 475 741 534 722 q 593 702 641 665 q 710 611 749 527 q 787 443 787 346 q 787 284 769 228 q 751 172 717 126 q 666 56 585 18 q 505 -20 409 -20 z"},"(":{"x_min":0,"x_max":391,"ha":391,"o":"m 49 293 q 49 399 90 492 q 130 586 209 660 q 248 697 291 719 q 334 741 365 741 q 379 741 388 735 q 396 729 396 718 q 396 709 372 690 q 348 671 334 658 q 275 602 248 515 q 221 428 221 293 q 221 171 243 90 q 265 8 312 -49 q 332 -73 364 -99 q 396 -124 396 -133 q 396 -144 388 -149 q 380 -155 365 -155 q 334 -155 291 -133 q 248 -111 209 -74 q 130 0 90 94 q 49 187 49 293 z"},"C":{"x_min":0,"x_max":719,"ha":719,"o":"m 582 705 q 592 712 602 716 q 611 719 621 719 q 650 719 675 672 q 699 625 699 566 q 699 541 687 526 q 674 512 652 512 q 632 512 602 544 q 596 550 594 552 q 542 605 499 626 q 456 647 401 647 q 313 647 267 590 q 220 533 220 426 q 220 271 286 186 q 353 101 473 101 q 512 101 543 112 q 575 123 598 145 q 607 153 621 170 q 644 198 661 198 q 680 198 692 181 q 703 164 703 135 q 703 92 687 62 q 670 31 648 31 q 639 31 630 33 q 621 35 612 38 q 562 9 512 -5 q 461 -19 409 -19 q 345 -19 286 -2 q 227 16 182 47 q 108 99 68 184 q 28 270 28 373 q 28 438 46 495 q 65 553 101 600 q 151 667 233 705 q 315 742 412 742 q 455 742 497 733 q 540 724 582 705 z"},"W":{"x_min":0,"x_max":1088,"ha":1088,"o":"m 544 353 q 512 279 466 164 q 395 -15 366 -15 q 341 -15 312 48 q 310 55 308 58 q 203 292 111 533 q 98 568 94 578 q 78 620 46 631 q 42 632 40 633 q 19 641 8 654 q -3 666 -3 681 q -3 709 35 722 q 73 734 165 734 q 249 734 281 722 q 314 711 314 683 q 314 672 310 664 q 306 656 299 651 q 294 648 286 644 q 265 633 265 622 q 265 604 326 450 q 343 406 353 382 q 375 325 388 300 q 400 275 406 275 q 414 275 456 375 q 480 435 497 472 q 491 488 480 517 q 445 612 420 628 q 416 631 407 636 q 374 654 374 679 q 374 709 409 721 q 444 734 532 734 q 612 734 644 722 q 676 711 676 683 q 676 673 672 665 q 667 656 660 651 q 656 648 648 644 q 627 633 627 622 q 627 603 694 432 l 714 382 q 736 327 749 301 q 761 276 767 276 q 774 276 807 352 l 812 365 l 820 384 q 908 590 908 611 q 908 619 903 624 q 899 629 882 639 q 879 641 874 644 q 844 659 844 682 q 844 709 874 721 q 904 733 971 733 q 1032 733 1062 721 q 1092 708 1092 683 q 1092 655 1048 637 q 1043 635 1040 634 q 1012 622 992 568 q 989 561 987 556 q 931 409 876 276 q 821 143 771 32 l 770 29 q 749 -15 727 -15 q 694 -15 608 197 q 569 294 544 353 z"},"A":{"x_min":0,"x_max":759,"ha":759,"o":"m 418 298 l 406 332 q 351 492 336 492 q 320 492 257 322 l 248 298 q 279 299 297 300 q 314 300 330 300 q 345 300 363 300 q 381 299 418 298 z m 588 -5 q 505 -5 471 7 q 437 19 437 46 q 437 57 441 65 q 446 74 453 78 q 458 81 467 84 q 489 95 489 106 q 489 126 475 157 q 461 188 448 197 q 441 202 412 204 q 383 206 332 206 q 268 206 243 204 q 218 202 211 198 q 202 193 191 167 q 179 140 179 122 q 179 112 184 105 q 189 99 204 92 q 207 91 212 88 q 250 71 250 46 q 250 19 219 8 q 188 -3 103 -3 q 44 -3 15 9 q -15 21 -15 45 q -15 73 30 90 q 45 97 52 100 q 78 113 142 274 q 161 323 172 351 q 180 372 197 412 q 277 610 289 686 q 294 721 308 730 q 321 740 355 740 q 386 740 404 732 q 422 724 436 704 q 455 677 498 574 q 542 471 659 170 l 661 166 q 682 108 719 97 q 745 89 758 77 q 771 64 771 48 q 771 19 731 7 q 690 -5 588 -5 z"},"f":{"x_min":0,"x_max":339,"ha":339,"o":"m 306 467 q 322 467 326 463 q 330 459 330 446 q 330 408 325 399 q 320 390 297 390 l 262 390 q 250 390 246 385 q 242 380 242 359 l 242 260 q 242 174 245 137 q 247 101 253 93 q 258 86 288 74 q 319 61 319 41 q 319 17 281 5 q 244 -6 160 -6 q 76 -6 46 5 q 16 15 16 41 q 16 62 40 76 q 64 89 67 93 q 73 101 75 137 q 78 173 78 258 l 78 369 q 78 388 55 390 q 53 390 51 390 l 23 392 q 10 393 7 401 q 4 409 4 442 q 4 464 35 467 q 38 467 40 467 l 59 467 q 70 467 73 470 q 76 474 76 485 q 76 489 72 516 q 68 544 68 568 q 68 650 116 696 q 164 741 251 741 q 322 741 365 713 q 407 684 407 638 q 407 610 391 594 q 375 577 348 577 q 325 577 308 590 q 292 602 275 633 q 261 658 251 666 q 242 674 228 674 q 210 674 200 663 q 189 652 189 634 q 189 620 217 566 q 246 513 248 467 z"},"Q":{"x_min":0,"x_max":815,"ha":815,"o":"m 591 288 q 591 359 572 427 q 553 494 519 543 q 486 591 449 615 q 411 640 371 640 q 304 640 264 583 q 223 526 223 431 q 223 361 242 295 q 261 229 297 175 q 328 129 364 106 q 401 83 443 83 q 510 83 551 139 q 591 194 591 288 z m 228 25 q 132 76 80 166 q 29 255 29 372 q 29 437 47 495 q 65 552 101 600 q 150 666 232 704 q 313 741 409 741 q 475 741 534 722 q 593 702 641 665 q 710 611 749 527 q 787 443 787 346 q 787 206 704 109 q 621 11 482 -11 q 518 -20 590 -42 q 663 -64 697 -70 q 722 -69 749 -58 q 777 -46 781 -46 q 789 -46 798 -58 q 806 -70 806 -83 q 806 -125 745 -163 q 684 -201 608 -201 q 528 -201 400 -138 l 394 -135 l 386 -131 q 230 -53 168 -53 q 154 -53 127 -64 q 101 -75 87 -75 q 66 -75 54 -63 q 42 -51 42 -31 q 42 -1 65 18 q 89 37 126 37 q 148 37 174 34 q 200 31 228 25 z"},"w":{"x_min":0,"x_max":913,"ha":913,"o":"m 456 271 l 448 252 q 328 -13 289 -13 q 252 -13 142 238 q 108 314 88 358 q 86 362 83 369 q 64 413 39 423 q 37 424 33 425 q -2 438 -2 463 q -2 491 30 502 q 62 513 147 513 q 218 513 247 502 q 276 491 276 466 q 276 451 257 438 q 238 425 238 417 q 238 410 245 391 q 252 372 278 314 q 282 305 290 288 q 326 205 334 205 q 341 205 411 359 l 414 365 l 414 366 q 394 414 369 423 q 367 424 363 425 q 327 438 327 463 q 327 490 360 502 q 392 513 477 513 q 548 513 577 502 q 606 491 606 466 q 606 451 587 438 q 568 425 568 417 q 568 409 576 386 q 585 363 607 314 q 612 303 620 285 q 655 206 663 206 q 665 206 671 215 q 676 225 696 264 q 727 327 741 361 q 755 396 755 407 q 755 417 732 431 q 709 446 709 466 q 709 490 736 502 q 764 513 822 513 q 874 513 899 501 q 925 489 925 466 q 925 444 889 428 q 882 425 878 423 q 851 410 828 359 q 824 351 822 346 q 807 313 779 254 q 656 -13 619 -13 q 582 -13 468 244 z"},"-":{"x_min":0,"x_max":389,"ha":389,"o":"m 171 195 q 142 195 111 192 q 81 190 79 190 q 62 190 54 198 q 47 206 47 224 q 47 239 52 259 q 56 279 65 301 q 74 324 81 329 q 89 335 116 335 q 121 335 154 334 q 186 334 214 334 q 243 334 273 337 q 304 340 305 340 q 323 340 330 332 q 338 324 338 306 q 338 291 333 271 q 329 251 320 229 q 311 206 303 200 q 295 194 267 194 q 263 194 231 194 q 200 195 171 195 z"},"E":{"x_min":0,"x_max":670,"ha":670,"o":"m 497 729 q 523 729 551 734 q 579 739 581 739 q 604 739 619 700 q 635 661 635 602 q 635 577 625 564 q 616 551 597 551 q 578 551 558 579 q 539 606 532 612 q 513 627 481 634 q 448 640 391 640 q 325 640 306 635 q 287 631 283 619 q 279 606 276 565 q 274 523 274 461 q 274 427 331 427 q 392 427 408 435 q 425 444 432 470 q 434 479 436 494 q 441 538 472 538 q 500 538 511 505 q 522 472 522 388 q 522 294 510 262 q 499 229 469 229 q 441 229 437 270 q 435 288 432 297 q 425 323 408 332 q 392 340 332 340 l 326 340 q 288 340 281 335 q 274 330 274 304 l 274 283 q 274 215 277 177 q 279 138 285 124 q 292 107 315 99 q 338 92 387 92 q 463 92 501 102 q 540 112 559 136 q 571 152 588 192 q 605 232 629 232 q 647 232 656 217 q 666 202 666 174 q 666 100 646 44 q 626 -12 603 -12 q 601 -12 590 -9 q 557 0 523 0 l 168 0 q 68 0 44 10 q 20 20 20 47 q 20 73 49 88 q 78 103 81 107 q 88 117 92 192 q 96 266 96 392 q 96 492 92 552 q 88 612 81 622 q 78 627 49 642 q 20 656 20 682 q 20 709 44 719 q 68 729 174 729 z"},"s":{"x_min":0,"x_max":454,"ha":454,"o":"m 30 363 q 30 433 76 476 q 123 519 199 519 q 218 519 241 516 q 264 512 269 512 q 278 512 297 521 q 315 529 325 529 q 335 529 347 521 q 358 514 368 502 q 389 474 401 440 q 414 407 414 381 q 414 361 405 349 q 396 337 380 337 q 368 337 357 344 q 347 351 333 369 q 329 374 322 384 q 281 441 239 441 q 221 441 208 429 q 195 418 195 402 q 195 369 278 331 q 299 321 311 315 q 376 284 405 246 q 434 209 434 156 q 434 83 378 34 q 323 -14 236 -14 q 213 -14 184 -9 q 156 -4 150 -4 q 142 -4 126 -9 q 111 -14 103 -14 q 92 -14 80 -7 q 67 1 59 14 q 39 44 27 78 q 15 111 15 136 q 15 159 26 174 q 37 189 54 189 q 79 189 113 136 q 124 120 129 112 q 145 89 172 75 q 200 61 229 61 q 256 61 272 73 q 288 86 288 107 q 288 143 185 194 l 180 197 q 88 241 59 276 q 30 311 30 363 z"},">":{"x_min":0,"x_max":833,"ha":833,"o":"m 129 593 l 704 355 l 704 241 l 129 4 l 129 128 l 546 298 l 129 469 z"},"l":{"x_min":0,"x_max":328,"ha":328,"o":"m 250 324 q 250 201 253 152 q 255 103 262 93 q 265 89 289 76 q 314 62 314 41 q 314 15 283 5 q 251 -6 169 -6 q 87 -6 56 5 q 25 15 25 41 q 25 62 49 76 q 74 90 76 93 q 82 101 84 135 q 86 169 86 298 l 86 411 q 86 523 83 561 q 81 599 74 607 q 70 612 41 621 q 12 630 12 654 q 12 666 22 676 q 32 686 53 695 q 100 717 144 729 q 188 741 219 741 q 240 741 247 732 q 254 722 254 690 q 254 686 253 661 q 250 498 250 324 z"},"8":{"x_min":0,"x_max":593,"ha":593,"o":"m 355 412 q 373 437 381 462 q 390 487 390 514 q 390 559 365 587 q 339 615 299 615 q 265 615 243 594 q 221 573 221 540 q 221 506 252 476 q 282 447 355 412 z m 222 321 q 203 293 193 264 q 183 234 183 203 q 183 146 218 108 q 252 71 304 71 q 344 71 369 95 q 394 119 394 158 q 394 200 357 236 q 320 272 222 321 z m 161 357 q 106 386 80 423 q 53 459 53 506 q 53 591 123 643 q 193 695 310 695 q 415 695 477 649 q 540 603 540 527 q 540 478 509 437 q 477 397 418 372 q 492 331 526 287 q 560 242 560 187 q 560 99 485 42 q 410 -14 290 -14 q 175 -14 104 40 q 33 93 33 178 q 33 235 66 281 q 98 327 161 357 z"},"\\":{"x_min":0,"x_max":278,"ha":278,"o":"m 326 -61 q 328 -66 328 -71 q 329 -75 329 -78 q 329 -87 322 -91 q 314 -94 285 -94 q 261 -94 254 -90 q 246 -85 240 -68 l -21 708 q -23 717 -24 720 q -25 724 -25 727 q -25 735 -17 739 q -8 742 16 742 l 23 742 q 48 742 55 737 q 63 732 68 717 z"},"e":{"x_min":0,"x_max":544,"ha":544,"o":"m 478 246 l 233 246 q 216 246 211 243 q 207 239 207 230 q 207 178 245 140 q 284 102 339 102 q 380 102 425 124 q 471 145 478 145 q 492 145 502 136 q 512 128 512 116 q 512 97 502 80 q 492 64 468 45 q 432 16 386 1 q 340 -14 290 -14 q 172 -14 99 59 q 26 133 26 250 q 26 369 102 445 q 177 522 294 522 q 396 522 461 465 q 526 408 526 320 q 526 273 516 260 q 506 246 478 246 z m 223 319 l 352 319 q 362 319 367 323 q 371 327 371 337 q 371 382 347 410 q 323 439 286 439 q 252 439 228 408 q 204 377 204 333 q 204 325 208 322 q 212 319 223 319 z"},"b":{"x_min":0,"x_max":625,"ha":625,"o":"m 228 213 q 228 152 246 128 q 265 104 308 104 q 357 104 386 145 q 415 185 415 255 q 415 328 385 371 q 356 414 307 414 q 268 414 248 391 q 228 367 228 322 z m 228 496 q 228 484 230 478 q 231 472 235 472 q 239 472 254 481 q 321 520 385 520 q 479 520 539 453 q 598 387 598 282 q 598 234 583 188 q 567 142 538 101 q 498 46 440 17 q 382 -12 313 -12 q 264 -12 220 2 q 176 17 139 46 q 119 30 100 21 q 82 13 67 13 q 55 13 47 19 q 40 25 40 35 q 40 40 47 57 q 53 75 55 90 q 59 128 61 199 q 63 270 63 356 l 63 470 q 63 547 59 576 q 56 604 46 612 q 44 613 17 622 q -10 630 -10 654 q -10 666 0 676 q 10 686 30 695 q 76 717 120 729 q 164 741 195 741 q 218 741 224 733 q 231 726 231 700 q 231 687 229 642 q 228 597 228 566 z"},"%":{"x_min":0,"x_max":854,"ha":854,"o":"m 602 202 q 602 140 624 99 q 645 58 676 58 q 698 58 711 81 q 725 104 725 143 q 725 200 704 241 q 682 283 655 283 q 631 283 616 261 q 602 239 602 202 z m 484 174 q 484 250 537 302 q 590 355 666 355 q 746 355 794 304 q 843 253 843 169 q 843 91 792 38 q 742 -14 667 -14 q 588 -14 536 39 q 484 92 484 174 z m 674 600 q 674 590 651 564 q 645 557 641 553 q 606 513 542 418 q 477 323 404 202 q 404 202 402 199 q 352 121 294 -6 q 291 -14 287 -17 q 283 -21 278 -21 q 269 -21 250 -12 q 232 -4 208 12 q 201 16 198 22 q 194 27 194 34 q 194 45 219 75 q 237 96 247 109 q 278 152 433 399 l 496 499 q 522 541 553 600 q 581 654 594 654 q 601 654 616 646 q 631 638 665 615 q 669 612 671 608 q 674 604 674 600 z m 131 493 q 131 431 152 390 q 174 349 205 349 q 227 349 240 372 q 254 396 254 434 q 254 491 233 532 q 211 574 184 574 q 160 574 145 552 q 131 530 131 493 z m 13 465 q 13 541 66 594 q 119 646 194 646 q 274 646 323 595 q 372 544 372 461 q 372 383 321 330 q 270 277 195 277 q 116 277 65 330 q 13 383 13 465 z"},"m":{"x_min":0,"x_max":975,"ha":975,"o":"m 250 481 l 250 450 q 250 443 251 440 q 253 436 256 436 q 264 436 278 454 q 289 467 296 474 q 317 496 346 506 q 375 517 410 517 q 445 517 474 506 q 503 496 531 472 q 542 463 554 447 q 565 431 570 431 q 577 431 591 445 q 597 451 600 454 q 634 486 668 502 q 702 517 741 517 q 781 517 816 502 q 851 487 872 461 q 895 434 904 393 q 914 352 914 278 l 914 201 q 914 144 916 122 q 918 100 923 93 q 926 89 950 76 q 975 62 975 41 q 975 15 944 5 q 913 -6 831 -6 q 749 -6 717 5 q 686 15 686 41 q 686 64 717 79 q 729 84 734 88 q 741 94 744 115 q 747 136 747 199 q 747 321 730 357 q 714 392 670 392 q 625 392 604 350 q 582 309 582 223 q 582 159 584 130 q 586 102 592 93 q 595 89 619 76 q 644 62 644 41 q 644 15 613 5 q 581 -6 499 -6 q 417 -6 386 5 q 355 15 355 41 q 355 64 386 79 q 397 84 402 88 q 410 95 413 118 q 416 141 416 199 q 416 320 399 356 q 382 392 338 392 q 292 392 271 349 q 250 306 250 213 q 250 154 252 127 q 254 101 260 93 q 263 89 287 76 q 311 62 311 41 q 311 15 280 5 q 249 -6 167 -6 q 85 -6 53 5 q 22 15 22 41 q 22 64 53 79 q 65 84 70 88 q 78 94 81 118 q 84 141 84 228 q 84 322 80 351 q 76 380 66 388 q 64 389 37 398 q 10 406 10 430 q 10 442 20 452 q 30 463 50 472 q 95 493 139 505 q 184 517 216 517 q 235 517 243 510 q 250 502 250 481 z"},"#":{"x_min":0,"x_max":769,"ha":769,"o":"m 344 412 l 303 297 l 427 297 l 468 412 z m 334 716 l 455 716 l 387 524 l 505 524 l 573 716 l 694 716 l 626 524 l 758 524 l 716 412 l 586 412 l 546 298 l 681 298 l 640 186 l 506 186 l 437 -6 l 316 -6 l 385 186 l 267 186 l 198 -6 l 77 -6 l 146 186 l 11 186 l 53 298 l 186 298 l 226 412 l 87 412 l 129 524 l 266 524 z"},",":{"x_min":0,"x_max":296,"ha":296,"o":"m 60 83 q 60 122 84 149 q 109 176 144 176 q 190 176 217 140 q 244 104 244 41 q 244 0 229 -46 q 213 -92 182 -142 q 155 -186 142 -197 q 129 -208 115 -208 q 94 -208 81 -200 q 68 -192 68 -180 q 68 -174 83 -151 q 95 -134 102 -123 q 122 -91 131 -67 q 140 -44 140 -28 q 140 -14 123 -8 q 115 -5 110 -2 q 83 14 72 34 q 60 54 60 83 z"},"n":{"x_min":0,"x_max":662,"ha":662,"o":"m 250 481 l 250 450 q 250 443 251 440 q 253 436 256 436 q 264 436 274 450 q 281 458 284 462 q 310 491 341 504 q 372 517 416 517 q 514 517 558 462 q 601 408 601 283 l 601 198 q 601 142 603 120 q 605 99 610 93 q 613 89 637 76 q 662 62 662 41 q 662 15 631 5 q 600 -6 518 -6 q 436 -6 404 5 q 373 15 373 41 q 373 64 404 79 q 417 84 421 88 q 428 94 431 115 q 434 136 434 197 q 434 323 416 359 q 398 395 350 395 q 298 395 274 351 q 250 307 250 210 q 250 153 252 127 q 254 101 260 93 q 263 89 287 76 q 311 62 311 41 q 311 15 280 5 q 249 -6 167 -6 q 85 -6 53 5 q 22 15 22 41 q 22 64 53 79 q 65 84 70 88 q 78 94 81 118 q 84 141 84 228 q 84 322 80 351 q 76 380 66 388 q 64 389 37 398 q 10 406 10 430 q 10 442 20 452 q 30 463 50 472 q 95 493 139 505 q 184 517 216 517 q 235 517 243 510 q 250 502 250 481 z"},"h":{"x_min":0,"x_max":662,"ha":662,"o":"m 244 450 q 244 443 246 440 q 247 436 250 436 q 258 436 269 451 q 274 458 278 462 q 305 492 336 506 q 367 519 409 519 q 507 519 551 464 q 594 408 594 283 l 594 198 q 594 142 596 120 q 598 99 603 93 q 605 89 630 76 q 655 62 655 41 q 655 15 624 5 q 593 -6 511 -6 q 429 -6 397 5 q 366 15 366 41 q 366 64 397 79 q 409 84 414 88 q 421 94 424 115 q 427 136 427 197 q 427 322 409 358 q 391 395 343 395 q 291 395 267 352 q 243 308 243 211 q 243 153 245 127 q 248 101 253 93 q 256 89 280 76 q 304 62 304 41 q 304 15 273 5 q 242 -6 160 -6 q 78 -6 47 5 q 16 15 16 41 q 16 64 46 79 q 58 84 63 88 q 72 95 76 142 q 79 188 79 372 q 79 517 75 560 q 70 604 59 612 q 57 614 30 622 q 3 630 3 654 q 3 668 15 679 q 27 689 63 704 q 106 722 144 732 q 182 741 211 741 q 233 741 240 731 q 248 722 248 691 q 248 666 246 597 q 244 528 244 485 z"},"z":{"x_min":0,"x_max":509,"ha":509,"o":"m 259 403 q 263 411 265 415 q 267 419 267 421 q 267 424 263 426 q 260 428 251 428 l 215 428 q 176 428 157 422 q 139 416 124 402 q 117 396 99 371 q 81 347 66 347 q 53 347 45 359 q 37 370 37 390 q 37 445 60 484 q 83 523 113 523 q 120 523 142 515 q 164 507 180 507 l 445 507 q 474 507 482 502 q 490 498 490 485 q 490 477 486 467 q 482 457 474 444 l 262 114 q 257 106 255 100 q 252 94 252 91 q 252 85 257 82 q 263 79 273 79 l 329 79 q 358 79 378 83 q 397 88 410 97 q 423 106 441 133 q 460 160 474 160 q 489 160 495 148 q 502 137 502 109 q 502 57 481 21 q 461 -14 433 -14 q 426 -14 406 -7 q 387 0 371 0 l 71 0 q 49 0 39 7 q 30 14 30 29 q 30 38 36 52 q 42 66 54 84 z"},"B":{"x_min":0,"x_max":712,"ha":712,"o":"m 273 433 q 285 432 299 431 q 313 430 327 430 q 407 430 443 454 q 479 479 479 532 q 479 586 445 613 q 411 640 342 640 q 312 640 300 635 q 287 629 281 615 q 277 604 275 571 q 273 538 273 458 z m 273 323 l 273 230 q 273 176 275 153 q 276 129 280 119 q 287 102 306 94 q 326 87 364 87 q 438 87 477 117 q 516 147 516 205 q 516 271 472 298 q 428 326 319 326 q 306 326 294 325 q 283 325 273 323 z m 494 385 q 593 371 644 322 q 695 274 695 195 q 695 100 623 47 q 551 -6 420 -6 q 386 -6 315 -2 q 243 1 205 1 q 193 1 158 0 q 123 -1 100 -1 q 61 -1 40 11 q 20 23 20 47 q 20 73 49 88 q 79 103 82 107 q 89 117 93 192 q 97 266 97 392 q 97 492 93 552 q 89 612 82 622 q 79 627 49 642 q 20 656 20 682 q 20 706 41 718 q 61 730 101 730 q 127 730 164 729 q 200 728 210 728 q 248 728 312 731 q 375 734 401 734 q 519 734 583 688 q 646 643 646 557 q 646 494 608 452 q 569 411 494 392 q 491 391 491 390 q 490 390 490 389 q 490 388 491 387 q 491 387 494 385 z"},"K":{"x_min":0,"x_max":757,"ha":757,"o":"m 411 429 q 407 425 405 422 q 403 419 403 416 q 403 413 405 409 q 407 405 410 402 l 509 289 q 610 172 647 135 q 684 99 703 90 q 708 87 722 84 q 758 77 758 45 q 758 15 736 5 q 714 -5 626 -5 q 579 -5 564 -2 q 548 0 540 6 q 522 19 481 63 q 439 108 372 188 l 292 282 q 289 286 286 288 q 283 290 281 290 q 276 290 273 280 q 271 270 271 249 q 271 182 275 146 q 280 109 289 102 q 295 97 309 91 q 345 74 345 47 q 345 18 312 7 q 278 -5 184 -5 q 90 -5 56 7 q 23 18 23 47 q 23 73 52 88 q 82 103 85 107 q 92 117 96 192 q 100 266 100 392 q 100 492 96 552 q 92 612 85 622 q 81 627 52 642 q 23 656 23 682 q 23 711 56 723 q 88 734 184 734 q 280 734 312 723 q 345 711 345 682 q 345 655 309 638 q 295 632 289 627 q 282 622 277 595 q 272 569 272 532 l 272 467 q 272 447 274 440 q 277 434 283 434 q 287 434 295 440 q 303 447 313 457 l 416 565 q 438 588 448 602 q 457 615 457 621 q 457 632 444 639 q 441 640 440 641 q 418 651 412 660 q 405 669 405 683 q 405 709 438 722 q 472 734 545 734 q 634 734 670 722 q 706 710 706 682 q 706 668 694 655 q 682 641 672 641 q 612 641 504 526 l 491 513 z"},"R":{"x_min":0,"x_max":766,"ha":766,"o":"m 278 453 l 278 417 q 287 416 297 416 q 307 415 325 415 q 403 415 439 442 q 475 469 475 527 q 475 582 442 611 q 409 641 347 641 q 317 641 303 635 q 290 629 285 614 q 281 603 280 575 q 278 547 278 453 z m 278 314 q 278 299 277 274 q 277 249 277 239 q 277 179 280 147 q 282 116 288 107 q 291 103 320 88 q 349 73 349 47 q 349 18 316 7 q 282 -5 188 -5 q 91 -5 58 6 q 25 18 25 47 q 25 73 54 88 q 83 103 87 107 q 94 117 98 192 q 102 266 102 392 q 102 492 98 552 q 94 612 87 622 q 83 627 54 642 q 25 656 25 682 q 25 706 45 718 q 66 730 106 730 q 132 730 168 729 q 205 728 215 728 q 252 728 316 731 q 380 734 406 734 q 528 734 591 685 q 654 636 654 540 q 654 471 617 420 q 580 370 519 356 q 517 354 516 353 q 515 352 515 351 q 515 350 516 349 q 517 348 519 345 q 544 338 563 327 q 582 316 597 301 q 608 289 617 274 q 625 260 632 242 q 641 219 651 175 q 661 130 671 113 q 682 95 713 87 q 721 85 725 84 q 742 78 750 70 q 757 62 757 48 q 757 19 724 2 q 690 -14 632 -14 q 593 -14 565 -5 q 537 3 518 21 q 485 52 458 149 q 451 171 448 182 q 423 265 394 290 q 366 315 306 315 q 295 315 289 315 q 283 314 278 314 z"},"T":{"x_min":0,"x_max":708,"ha":708,"o":"m 557 728 q 590 728 625 737 q 635 740 637 740 q 661 740 682 681 q 704 622 704 549 q 704 523 695 510 q 686 496 668 496 q 637 496 609 551 q 604 559 602 564 l 601 566 q 566 633 502 633 q 470 633 458 626 q 447 619 444 593 q 442 581 441 531 q 439 480 439 419 q 439 292 442 212 q 445 131 451 113 q 454 102 479 90 l 480 90 q 501 81 508 71 q 515 62 515 47 q 515 18 482 7 q 448 -5 354 -5 q 260 -5 226 7 q 193 18 193 47 q 193 73 222 88 q 252 103 255 107 q 263 119 266 197 q 270 274 270 419 q 270 480 268 531 q 267 581 265 593 q 262 619 251 626 q 240 633 207 633 q 142 633 106 564 l 106 564 q 104 559 98 549 q 71 496 41 496 q 23 496 14 510 q 5 523 5 549 q 5 622 27 681 q 48 740 72 740 q 75 740 84 737 q 119 728 152 728 z"},"P":{"x_min":0,"x_max":650,"ha":650,"o":"m 272 309 q 272 295 271 271 q 271 247 271 236 q 271 177 274 146 q 276 115 282 107 q 285 103 315 88 q 344 73 344 47 q 344 18 311 7 q 277 -5 183 -5 q 86 -5 53 6 q 20 18 20 47 q 20 73 49 88 q 79 103 82 107 q 89 117 93 192 q 97 266 97 392 q 97 492 93 552 q 89 612 82 622 q 79 627 49 642 q 20 656 20 682 q 20 706 41 718 q 61 730 101 730 q 127 730 163 729 q 200 728 210 728 q 248 728 311 731 q 375 734 401 734 q 525 734 587 684 q 648 634 648 532 q 648 422 578 363 q 508 303 379 303 q 354 303 328 305 q 302 306 272 309 z m 272 450 l 272 408 q 279 407 287 407 q 295 407 311 407 q 399 407 436 435 q 473 463 473 528 q 473 584 440 613 q 406 641 340 641 q 311 641 298 635 q 285 629 279 615 q 275 604 273 575 q 272 546 272 450 z"},"|":{"x_min":0,"x_max":500,"ha":500,"o":"m 192 764 l 309 764 l 309 -236 l 192 -236 z"},"t":{"x_min":0,"x_max":417,"ha":417,"o":"m 85 167 l 87 429 l 27 429 q 14 429 10 435 q 6 440 6 468 q 6 492 42 518 q 49 523 53 526 q 65 535 87 552 q 188 628 220 628 q 239 628 245 623 q 250 618 250 592 l 250 586 l 250 509 l 374 509 q 390 509 394 505 q 399 500 399 487 q 399 448 394 439 q 389 430 366 430 l 250 430 l 250 194 q 250 131 261 108 q 273 86 302 86 q 321 86 349 98 q 377 111 388 111 q 400 111 408 102 q 417 94 417 81 q 417 46 365 15 q 312 -15 244 -15 q 160 -15 123 27 q 85 68 85 163 z"},"M":{"x_min":0,"x_max":969,"ha":969,"o":"m 687 493 q 641 392 575 237 q 484 25 459 25 q 437 25 388 114 q 339 204 212 486 q 209 410 208 345 q 206 280 206 226 q 206 163 210 136 q 213 109 222 102 q 229 97 242 91 q 278 74 278 47 q 278 20 249 8 q 220 -5 157 -5 q 88 -5 59 7 q 29 19 29 47 q 29 73 58 88 q 88 103 92 109 q 99 121 108 250 q 116 380 116 543 q 116 578 111 599 q 106 619 95 627 q 89 631 75 638 q 39 655 39 682 q 39 709 70 722 q 101 734 172 734 q 210 734 236 730 q 261 727 275 719 q 291 710 325 632 q 334 610 340 598 l 403 460 q 445 368 462 338 q 479 308 487 308 q 506 308 589 500 q 619 570 637 611 q 673 694 702 714 q 730 734 796 734 q 872 734 903 722 q 933 710 933 682 q 933 655 897 638 q 883 631 877 627 q 868 620 864 584 q 859 548 859 484 q 859 346 864 240 q 869 133 875 113 q 878 102 903 90 l 904 90 q 925 81 932 71 q 939 62 939 47 q 939 18 906 7 q 872 -5 778 -5 q 680 -5 647 6 q 614 18 614 47 q 614 74 649 90 q 665 98 672 103 q 685 113 690 138 q 695 163 695 248 q 695 279 693 335 q 691 391 687 493 z"},"g":{"x_min":0,"x_max":544,"ha":544,"o":"m 158 -12 q 154 -21 152 -26 q 151 -31 151 -35 q 151 -71 186 -95 q 221 -118 278 -118 q 338 -118 372 -100 q 406 -82 406 -50 q 406 -29 394 -19 q 381 -9 356 -9 q 348 -9 308 -13 q 267 -18 234 -18 q 216 -18 197 -17 q 178 -15 158 -12 z m 275 222 q 312 222 332 248 q 353 273 353 319 q 353 372 328 407 q 304 442 268 442 q 234 442 213 416 q 192 390 192 347 q 192 292 216 257 q 239 222 275 222 z m 87 17 q 59 31 45 50 q 31 69 31 94 q 31 124 50 148 q 69 171 107 187 q 81 209 66 244 q 52 278 52 321 q 52 412 115 466 q 177 520 284 520 q 327 520 371 507 q 415 494 417 494 q 439 494 467 507 q 495 520 521 542 q 534 535 540 525 q 546 515 546 500 q 546 476 529 455 q 513 435 478 416 q 487 399 491 380 q 496 361 496 341 q 496 252 429 195 q 362 137 257 137 q 225 137 200 142 q 176 147 156 158 q 149 151 146 144 q 142 137 142 130 q 142 108 165 98 q 188 88 238 88 q 268 88 327 94 q 386 101 415 101 q 483 101 520 72 q 556 42 556 -13 q 556 -95 474 -150 q 392 -206 266 -206 q 151 -206 86 -169 q 20 -132 20 -69 q 20 -40 36 -19 q 52 2 87 17 z"},"j":{"x_min":0,"x_max":325,"ha":325,"o":"m 260 321 l 260 32 q 260 -53 251 -90 q 243 -126 223 -152 q 203 -178 168 -192 q 134 -207 94 -207 q 41 -207 7 -188 q -26 -170 -26 -141 q -26 -128 -18 -120 q -10 -112 2 -112 q 4 -112 20 -116 q 36 -120 49 -120 q 76 -120 85 -100 q 95 -79 95 9 l 95 21 q 95 237 92 305 q 89 373 81 383 q 77 388 48 397 q 19 407 19 430 q 19 442 29 452 q 39 463 59 472 q 104 493 149 505 q 193 517 225 517 q 247 517 254 507 q 261 498 261 467 q 261 464 261 452 q 260 386 260 321 z m 55 655 q 55 690 88 716 q 122 741 169 741 q 213 741 242 719 q 271 696 271 662 q 271 627 239 603 q 207 579 159 579 q 113 579 84 601 q 55 622 55 655 z"},"i":{"x_min":0,"x_max":334,"ha":334,"o":"m 55 655 q 55 690 88 716 q 122 741 169 741 q 213 741 242 719 q 271 696 271 662 q 271 627 239 603 q 207 579 159 579 q 113 579 84 601 q 55 622 55 655 z m 260 321 l 260 196 q 260 135 263 115 q 266 94 273 88 q 278 84 290 79 q 321 64 321 41 q 321 15 290 5 q 258 -6 176 -6 q 94 -6 63 5 q 32 15 32 41 q 32 64 62 79 q 74 84 79 88 q 87 95 90 118 q 93 142 93 212 q 93 322 89 351 q 85 380 75 388 q 73 390 46 398 q 19 406 19 430 q 19 442 29 452 q 39 463 59 472 q 104 493 149 505 q 193 517 225 517 q 247 517 254 508 q 261 500 261 469 q 261 465 261 448 q 260 380 260 321 z"},"y":{"x_min":0,"x_max":575,"ha":575,"o":"m 248 417 q 248 405 281 333 l 289 314 q 320 244 331 225 q 342 205 347 205 q 350 205 354 212 q 357 219 363 234 q 372 256 386 295 q 422 389 422 404 q 422 413 419 417 q 416 422 403 428 q 385 437 379 445 q 372 453 372 466 q 372 490 399 501 q 426 512 489 512 q 544 512 571 501 q 597 489 597 466 q 597 454 590 446 q 582 438 554 426 q 523 413 505 377 q 502 371 500 367 q 485 338 432 202 q 379 66 337 -33 q 300 -121 248 -165 q 195 -209 128 -209 q 80 -209 52 -184 q 23 -158 23 -116 q 23 -85 43 -63 q 63 -42 93 -42 q 112 -42 127 -49 q 143 -57 152 -70 q 155 -74 159 -80 q 173 -101 187 -101 q 212 -101 228 -78 q 243 -55 243 -16 q 243 31 203 118 l 200 125 q 151 232 123 293 q 95 353 84 374 q 82 378 79 384 q 63 415 41 423 q 40 423 37 424 q -2 438 -2 463 q -2 491 31 502 q 65 513 153 513 q 229 513 258 502 q 288 492 288 466 q 288 451 268 438 q 248 425 248 417 z"},"@":{"x_min":0,"x_max":986,"ha":986,"o":"m 572 153 q 542 106 508 83 q 474 59 436 59 q 360 59 318 103 q 277 147 277 228 q 277 285 302 337 q 326 390 373 433 q 406 463 446 480 q 486 496 528 496 q 575 496 601 475 q 627 453 634 410 l 657 487 l 759 487 l 674 182 q 670 166 668 156 q 667 147 667 139 q 667 117 676 104 q 686 91 701 91 q 716 91 742 104 q 769 118 792 138 q 839 181 864 241 q 889 302 889 375 q 889 434 873 482 q 856 530 823 566 q 775 619 708 647 q 642 675 562 675 q 494 675 433 656 q 371 636 319 598 q 238 540 194 450 q 151 361 151 253 q 151 89 251 -7 q 351 -102 523 -102 q 603 -102 677 -78 q 751 -54 831 -1 l 851 -29 q 777 -84 694 -112 q 611 -140 523 -140 q 312 -140 188 -31 q 63 79 63 263 q 63 362 106 449 q 148 537 229 602 q 296 657 377 685 q 458 713 548 713 q 718 713 821 620 q 924 528 924 374 q 924 294 895 227 q 866 159 811 110 q 782 84 749 71 q 715 57 680 57 q 632 57 604 83 q 575 108 572 153 z m 551 460 q 521 460 497 438 q 473 417 449 370 q 421 315 406 263 q 391 211 391 172 q 391 137 407 117 q 423 96 449 96 q 478 96 505 126 q 533 155 558 214 q 579 262 591 311 q 603 359 603 392 q 603 425 590 442 q 576 460 551 460 z"},".":{"x_min":0,"x_max":296,"ha":296,"o":"m 53 81 q 53 122 81 149 q 108 177 148 177 q 188 177 216 149 q 243 122 243 81 q 243 41 216 13 q 188 -14 148 -14 q 108 -14 81 13 q 53 41 53 81 z"},"p":{"x_min":0,"x_max":640,"ha":640,"o":"m 244 194 q 244 133 262 108 q 281 83 324 83 q 372 83 402 124 q 432 164 432 230 q 432 303 400 347 q 369 391 317 391 q 280 391 262 369 q 244 347 244 303 z m 244 481 l 244 463 q 244 456 246 453 q 247 450 250 450 q 254 450 269 463 q 328 517 393 517 q 485 517 549 444 q 613 370 613 261 q 613 204 593 154 q 573 104 534 65 q 498 29 453 10 q 408 -10 361 -10 q 306 -10 259 21 q 250 27 249 27 q 246 27 245 19 q 243 12 243 -4 q 243 -52 245 -71 q 247 -89 252 -96 q 255 -101 285 -114 q 315 -127 315 -148 q 315 -173 277 -184 q 240 -195 153 -195 q 76 -195 46 -184 q 15 -173 15 -148 q 15 -125 47 -109 q 58 -104 63 -100 q 72 -93 75 -45 q 79 3 79 162 q 79 291 75 335 q 70 379 59 388 q 57 390 30 398 q 3 406 3 430 q 3 442 13 452 q 23 463 43 472 q 88 493 133 505 q 177 517 209 517 q 229 517 237 509 q 244 501 244 481 z"},"X":{"x_min":0,"x_max":708,"ha":708,"o":"m 260 353 l 256 359 q 96 604 72 621 q 64 626 43 634 q 0 649 0 678 q 0 708 36 721 q 72 733 169 733 q 258 733 292 722 q 326 710 326 683 q 326 666 307 651 q 287 636 287 629 q 287 619 307 586 q 327 554 377 485 q 386 498 401 521 q 461 610 461 625 q 461 630 458 634 q 456 637 447 642 q 444 644 440 646 q 414 659 414 682 q 414 708 444 721 q 474 733 540 733 q 605 733 637 721 q 669 708 669 683 q 669 654 624 636 q 603 628 593 622 q 555 598 452 442 l 430 409 q 453 375 492 316 q 618 125 640 109 q 648 104 668 96 q 712 81 712 52 q 712 21 676 9 q 639 -4 544 -4 q 456 -4 421 8 q 386 20 386 47 q 386 64 406 79 q 425 94 425 101 q 425 111 404 144 q 384 177 314 275 q 257 192 234 155 q 212 117 212 105 q 212 99 214 95 q 216 92 225 87 q 227 86 231 83 q 258 70 258 47 q 258 21 228 8 q 198 -4 133 -4 q 67 -4 35 8 q 3 21 3 46 q 3 77 52 94 q 72 101 79 105 q 102 119 144 176 q 185 232 260 353 z"},"*":{"x_min":0,"x_max":500,"ha":500,"o":"m 249 741 q 278 741 297 724 q 315 707 315 679 q 315 658 294 629 q 273 600 273 585 q 273 577 276 573 q 280 569 287 569 q 297 569 307 577 q 316 585 328 603 q 343 625 356 633 q 370 641 389 641 q 417 641 435 623 q 453 604 453 577 q 453 551 435 533 q 416 514 390 514 q 376 514 354 522 q 331 530 323 530 q 309 530 301 526 q 294 522 294 515 q 294 506 306 497 q 318 489 341 482 q 371 474 386 457 q 401 439 401 414 q 401 389 380 370 q 360 350 335 350 q 305 350 289 371 q 273 391 273 431 q 273 455 267 470 q 260 485 251 485 q 241 485 234 473 q 228 460 228 441 q 228 438 229 430 q 229 422 229 416 q 229 390 209 370 q 190 350 164 350 q 138 350 119 369 q 100 387 100 413 q 100 438 114 454 q 127 470 159 480 q 183 488 194 496 q 205 504 205 514 q 205 521 199 524 q 193 528 183 528 q 168 528 145 520 q 122 511 112 511 q 86 511 67 530 q 48 549 48 574 q 48 604 66 622 q 84 641 112 641 q 129 641 142 633 q 155 625 175 599 q 189 580 198 574 q 207 568 217 568 q 222 568 225 573 q 228 577 228 584 q 228 599 207 627 q 186 655 186 676 q 186 704 204 723 q 222 741 249 741 z"},"Y":{"x_min":0,"x_max":703,"ha":703,"o":"m 267 311 q 267 319 265 327 q 263 335 260 346 q 160 506 123 558 q 87 610 71 621 q 62 627 41 635 q -2 650 -2 678 q -2 709 34 721 q 71 734 166 734 q 253 734 288 722 q 323 711 323 683 q 323 666 304 651 q 285 636 285 629 q 285 618 313 572 q 342 526 392 456 q 393 456 394 455 q 395 455 397 455 q 398 455 399 455 q 400 456 401 456 q 443 519 468 566 q 493 613 493 627 q 493 637 481 643 q 479 644 478 644 q 460 653 455 661 q 450 669 450 682 q 450 709 479 721 q 509 733 575 733 q 641 733 674 720 q 706 708 706 683 q 706 654 655 634 q 628 624 617 616 q 592 598 558 546 q 524 495 444 346 q 441 336 439 327 q 438 318 437 310 q 440 199 443 158 q 446 116 452 107 q 455 103 484 88 q 513 73 513 47 q 513 18 480 7 q 446 -5 352 -5 q 258 -5 224 7 q 191 18 191 47 q 191 73 220 88 q 250 103 253 107 q 259 116 262 155 q 265 194 267 311 z"},"c":{"x_min":0,"x_max":523,"ha":523,"o":"m 26 247 q 26 366 107 445 q 189 523 313 523 q 401 523 458 481 q 516 438 516 377 q 516 341 494 319 q 472 297 436 297 q 406 297 387 314 q 368 332 342 395 q 334 415 317 426 q 300 437 278 437 q 240 437 219 406 q 198 375 198 318 q 198 225 241 166 q 284 107 350 107 q 382 107 425 127 q 467 147 479 147 q 494 147 504 138 q 514 128 514 114 q 514 99 504 82 q 493 65 475 51 q 432 18 388 2 q 345 -14 294 -14 q 175 -14 100 58 q 26 131 26 247 z"},"!":{"x_min":0,"x_max":340,"ha":340,"o":"m 76 77 q 76 118 103 145 q 130 172 171 172 q 211 172 239 145 q 266 117 266 77 q 266 37 238 9 q 210 -19 171 -19 q 131 -19 104 9 q 76 37 76 77 z m 171 741 q 217 741 238 698 q 259 654 259 559 q 259 488 249 422 q 239 355 220 298 q 209 265 198 251 q 187 238 171 238 q 155 238 144 251 q 133 265 122 298 q 104 354 93 422 q 83 490 83 559 q 83 653 104 697 q 125 741 171 741 z"},"/":{"x_min":0,"x_max":278,"ha":278,"o":"m 37 -68 q 31 -85 23 -90 q 16 -94 -13 -94 q -37 -94 -45 -91 q -53 -87 -53 -78 q -53 -75 -50 -65 q -49 -62 -49 -61 l 209 717 q 214 732 221 737 q 229 742 254 742 l 261 742 q 286 742 293 739 q 301 735 301 727 q 301 724 300 720 q 299 716 297 708 z"},"[":{"x_min":0,"x_max":391,"ha":391,"o":"m 63 -49 l 63 637 q 63 700 80 714 q 97 729 164 729 l 328 729 q 359 729 370 720 q 381 711 381 685 q 381 659 371 649 q 362 640 335 640 l 273 640 q 250 640 240 631 q 231 622 231 599 l 231 -12 q 231 -34 240 -43 q 250 -52 273 -52 l 335 -52 q 361 -52 371 -61 q 381 -71 381 -96 q 381 -123 370 -132 q 359 -141 323 -141 l 164 -141 q 97 -141 80 -126 q 63 -111 63 -49 z"},"6":{"x_min":0,"x_max":593,"ha":593,"o":"m 390 170 q 390 239 363 284 q 336 328 295 328 q 264 328 244 301 q 224 274 224 231 q 224 163 250 119 q 277 74 316 74 q 350 74 370 100 q 390 126 390 170 z m 226 392 q 264 419 301 433 q 337 447 374 447 q 458 447 512 387 q 566 328 566 234 q 566 124 492 55 q 418 -14 299 -14 q 173 -14 103 59 q 33 133 33 264 q 33 343 61 420 q 89 496 143 566 q 188 623 236 663 q 284 702 305 702 q 333 702 362 685 q 391 668 391 652 q 391 647 358 616 q 325 585 300 552 q 269 509 250 469 q 232 430 226 392 z"},"r":{"x_min":0,"x_max":447,"ha":447,"o":"m 88 202 q 88 289 82 333 q 76 378 63 388 q 62 389 34 398 q 7 406 7 430 q 7 442 17 452 q 27 463 47 472 q 92 493 137 505 q 183 517 214 517 q 229 517 238 511 q 246 505 249 491 q 252 477 254 457 q 255 436 261 436 q 269 436 283 454 q 287 459 289 462 q 312 491 334 504 q 356 517 381 517 q 418 517 440 491 q 463 464 463 421 q 463 382 441 356 q 419 330 387 330 q 360 330 333 354 q 305 378 293 378 q 271 378 263 346 q 255 314 255 210 q 255 141 257 120 q 260 100 266 93 q 270 89 298 77 q 326 64 326 41 q 326 15 293 5 q 260 -6 172 -6 q 88 -6 58 5 q 27 15 27 41 q 27 64 58 79 q 70 84 75 88 q 82 93 85 113 q 88 132 88 202 z"},"2":{"x_min":0,"x_max":593,"ha":593,"o":"m 384 123 q 418 123 434 127 q 450 131 462 141 q 472 149 490 175 q 509 200 524 200 q 540 200 549 188 q 558 176 558 155 q 558 130 550 95 q 541 60 526 23 q 512 -9 500 -24 q 489 -38 476 -38 q 458 -38 447 -30 q 436 -21 427 0 l 50 0 q 21 0 9 6 q -2 12 -2 26 q -2 45 70 109 l 77 116 q 90 128 116 151 q 329 343 329 442 q 329 489 308 514 q 288 539 249 539 q 229 539 210 533 q 190 526 172 514 q 158 504 125 474 q 91 443 69 443 q 51 443 40 455 q 28 466 28 484 q 28 505 49 532 q 70 559 108 585 q 151 615 196 630 q 242 645 291 645 q 391 645 455 592 q 519 538 519 456 q 519 392 475 336 q 431 280 298 190 l 296 189 q 231 145 231 134 q 231 128 240 126 q 249 123 269 123 z"},"{":{"x_min":0,"x_max":500,"ha":500,"o":"m 416 740 l 416 708 q 362 707 342 682 q 322 657 322 580 l 322 516 q 322 405 297 365 q 272 326 207 310 q 272 294 297 255 q 322 215 322 105 l 322 41 q 322 -36 342 -61 q 362 -86 416 -88 l 416 -119 l 410 -119 q 298 -119 257 -83 q 215 -47 215 50 l 215 141 q 215 223 188 253 q 162 284 87 291 l 87 330 q 162 337 188 367 q 215 398 215 480 l 215 571 q 215 668 257 704 q 298 740 410 740 z"},"9":{"x_min":0,"x_max":593,"ha":593,"o":"m 202 459 q 202 390 229 347 q 256 303 298 303 q 330 303 350 329 q 369 355 369 398 q 369 467 343 511 q 316 555 276 555 q 243 555 223 529 q 202 502 202 459 z m 362 240 q 325 211 290 198 q 254 184 217 184 q 134 184 80 245 q 25 306 25 398 q 25 511 98 578 q 171 646 294 646 q 417 646 488 572 q 558 499 558 369 q 558 290 530 213 q 502 136 448 66 q 403 9 355 -31 q 306 -70 286 -70 q 257 -70 227 -53 q 197 -37 197 -21 q 197 -13 232 21 q 267 54 290 84 q 321 124 339 162 q 357 201 362 240 z"}," ":{"x_min":0,"x_max":296,"ha":296,"o":""},"I":{"x_min":0,"x_max":361,"ha":361,"o":"m 181 734 q 277 734 309 723 q 342 711 342 682 q 342 656 313 642 q 284 627 280 622 q 273 612 269 552 q 265 492 265 392 q 265 266 269 192 q 273 117 280 107 q 283 103 312 88 q 342 73 342 47 q 342 18 308 7 q 275 -5 181 -5 q 87 -5 53 7 q 20 18 20 47 q 20 73 49 88 q 78 103 81 107 q 88 117 92 192 q 96 266 96 392 q 96 492 92 552 q 88 612 81 622 q 78 627 49 642 q 20 656 20 682 q 20 711 53 723 q 87 734 181 734 z"},"H":{"x_min":0,"x_max":782,"ha":782,"o":"m 413 437 q 481 437 496 445 q 510 453 510 484 q 510 541 508 578 q 505 616 502 622 q 499 628 471 643 q 444 657 444 682 q 444 711 477 722 q 510 734 602 734 q 698 734 730 723 q 763 711 763 682 q 763 656 734 642 q 705 627 701 622 q 694 612 690 552 q 686 492 686 392 q 686 266 690 192 q 694 117 701 107 q 704 103 734 88 q 763 73 763 47 q 763 18 730 6 q 698 -5 602 -5 q 510 -5 477 7 q 444 18 444 47 q 444 73 470 86 q 496 99 498 101 q 505 108 507 136 q 510 164 510 249 q 510 281 509 297 q 508 313 506 318 q 501 328 483 331 q 464 335 391 335 q 328 335 307 332 q 286 330 280 323 q 276 318 274 305 q 273 292 273 249 q 273 187 275 150 q 277 114 281 107 q 285 100 311 86 q 338 72 338 47 q 338 18 305 6 q 273 -5 181 -5 q 85 -5 53 6 q 20 18 20 47 q 20 73 49 88 q 78 103 81 107 q 88 117 92 192 q 96 266 96 392 q 96 492 92 552 q 88 612 81 622 q 78 627 49 642 q 20 656 20 682 q 20 711 53 723 q 85 734 181 734 q 273 734 305 723 q 338 711 338 682 q 338 654 304 639 q 290 633 285 628 q 278 621 275 588 q 272 555 272 484 q 272 453 287 445 q 302 437 369 437 z"},"4":{"x_min":0,"x_max":593,"ha":593,"o":"m 555 158 q 565 158 571 151 q 577 144 577 131 l 577 70 q 577 54 570 47 q 563 40 548 40 l 516 40 l 516 -95 q 516 -112 506 -121 q 496 -129 476 -129 l 393 -129 q 374 -129 364 -121 q 355 -112 355 -95 l 355 40 l 64 40 q 36 40 25 51 q 15 62 15 91 q 15 164 149 334 q 166 355 175 367 q 253 467 313 536 q 373 604 401 626 q 416 638 433 643 q 450 648 475 648 q 502 648 511 639 q 520 629 520 601 q 520 585 518 528 q 516 470 516 427 l 516 158 z m 355 182 l 355 400 q 355 420 353 428 q 350 436 345 436 q 333 436 274 362 q 214 287 138 175 q 136 171 136 169 q 135 167 135 165 q 135 162 138 160 q 140 158 145 158 l 335 158 q 347 158 351 163 q 355 168 355 182 z"},"~":{"x_min":0,"x_max":833,"ha":833,"o":"m 747 400 l 747 276 q 698 242 652 226 q 607 209 563 209 q 541 209 520 213 q 498 216 479 223 q 473 225 460 229 q 336 273 274 273 q 233 273 188 255 q 144 236 87 196 l 87 320 q 142 355 188 373 q 235 390 276 390 q 307 390 338 384 q 369 378 420 362 q 428 359 445 354 q 523 326 566 326 q 607 326 651 344 q 694 361 747 400 z"},"D":{"x_min":0,"x_max":815,"ha":815,"o":"m 571 350 q 571 485 514 566 q 457 647 362 647 q 328 647 309 639 q 290 632 285 616 q 279 597 276 540 q 273 482 273 395 q 273 288 276 212 q 279 136 284 119 q 289 105 315 95 q 341 84 374 84 q 468 84 519 154 q 571 223 571 350 z m 406 -6 q 360 -6 285 -3 q 210 0 181 0 q 168 0 146 0 q 124 -1 114 -1 q 97 -1 85 0 q 73 1 63 3 q 41 8 30 18 q 20 29 20 47 q 20 73 49 88 q 78 103 81 107 q 88 117 92 192 q 96 266 96 392 q 96 492 92 552 q 88 612 81 622 q 78 627 49 642 q 20 656 20 682 q 20 709 45 720 q 70 730 153 730 q 207 730 278 732 q 350 734 368 734 q 466 734 525 720 q 584 707 628 676 q 698 627 734 548 q 770 468 770 363 q 770 192 672 93 q 575 -6 406 -6 z"},"^":{"x_min":0,"x_max":1000,"ha":1000,"o":"m 436 714 l 563 714 l 797 438 l 738 438 l 499 608 l 260 438 l 201 438 z"},"0":{"x_min":0,"x_max":593,"ha":593,"o":"m 394 218 q 394 353 353 451 q 311 549 261 549 q 231 549 215 514 q 198 479 198 415 q 198 280 240 182 q 281 83 330 83 q 360 83 377 118 q 394 154 394 218 z m 30 327 q 30 399 49 457 q 68 514 108 559 q 144 600 194 623 q 243 646 296 646 q 413 646 487 552 q 562 458 562 309 q 562 167 490 76 q 417 -14 305 -14 q 250 -14 201 9 q 152 33 113 78 q 72 125 51 189 q 30 252 30 327 z"},"F":{"x_min":0,"x_max":646,"ha":646,"o":"m 502 729 q 528 729 556 734 q 584 739 586 739 q 609 739 625 700 q 640 661 640 602 q 640 577 631 564 q 621 551 602 551 q 592 551 583 556 q 575 562 563 578 q 561 582 556 588 q 539 613 522 621 q 501 631 471 636 q 440 640 387 640 q 330 640 311 635 q 292 631 288 619 q 284 605 281 564 q 279 522 279 461 q 279 427 336 427 q 396 427 414 435 q 431 444 437 470 q 439 479 441 494 q 446 538 477 538 q 504 538 516 505 q 527 472 527 388 q 527 294 515 262 q 504 229 474 229 q 446 229 441 270 q 439 288 437 297 q 431 323 414 332 q 396 340 337 340 l 325 340 q 292 340 285 333 q 278 327 278 294 q 278 179 280 147 q 282 116 288 107 q 293 99 313 91 q 321 88 325 86 q 341 79 348 70 q 354 62 354 47 q 354 18 324 8 q 295 -3 189 -3 q 85 -3 55 8 q 24 19 24 47 q 24 73 53 88 q 83 103 86 107 q 93 117 97 192 q 101 266 101 392 q 101 492 97 552 q 93 612 86 622 q 82 627 53 642 q 24 656 24 682 q 24 709 48 719 q 73 729 179 729 z"},"`":{"x_min":0,"x_max":500,"ha":500,"o":"m 286 586 l 108 644 q 90 649 83 656 q 76 662 76 671 q 76 698 92 725 q 108 752 124 752 q 133 752 150 744 q 154 742 156 741 l 316 667 q 346 653 354 647 q 362 640 362 633 q 362 611 351 594 q 340 577 324 577 q 319 577 309 579 q 299 582 286 586 z"},"k":{"x_min":0,"x_max":632,"ha":632,"o":"m 250 449 l 250 334 q 250 325 252 322 q 254 319 259 319 q 263 319 268 323 q 273 327 287 339 l 349 396 q 362 408 367 416 q 372 423 372 429 q 372 437 364 451 q 356 465 356 472 q 356 493 385 502 q 414 512 476 512 q 533 512 558 501 q 583 490 583 466 q 583 454 577 446 q 572 438 563 437 l 521 430 q 519 430 515 429 q 476 423 440 389 l 414 364 q 410 360 404 354 q 392 343 392 339 q 392 333 404 317 q 415 301 439 273 q 482 223 521 180 q 560 137 584 113 q 611 87 646 78 q 652 77 654 76 q 666 71 673 63 q 679 56 679 45 q 679 19 651 9 q 623 -1 537 -1 l 514 -1 q 479 -1 463 7 q 446 16 426 39 q 381 90 324 161 q 268 232 260 232 q 256 232 255 229 q 253 225 253 215 l 253 174 q 253 130 256 112 q 259 94 266 88 q 271 84 283 79 q 314 64 314 41 q 314 15 283 5 q 251 -6 169 -6 q 87 -6 56 5 q 25 15 25 41 q 25 62 49 76 q 74 90 76 93 q 82 101 84 135 q 86 169 86 298 l 86 411 q 86 523 83 561 q 81 599 74 607 q 70 612 41 621 q 12 630 12 654 q 12 666 22 676 q 32 686 53 695 q 100 717 144 729 q 188 741 219 741 q 241 741 248 731 q 255 721 255 688 q 255 676 252 597 q 250 517 250 449 z"},"u":{"x_min":0,"x_max":662,"ha":662,"o":"m 417 23 l 417 48 q 417 55 416 58 q 414 62 411 62 q 406 62 393 49 q 381 36 371 28 q 346 7 312 -3 q 279 -14 240 -14 q 185 -14 144 10 q 104 35 86 79 q 75 106 71 142 q 66 177 66 244 l 66 328 q 66 363 62 375 q 58 386 48 389 q 42 391 30 395 q -4 406 -4 430 q -4 442 6 452 q 16 463 36 472 q 82 493 126 505 q 170 517 202 517 q 224 517 231 507 q 238 498 238 464 q 238 441 235 375 q 232 309 232 265 q 232 180 252 145 q 271 109 317 109 q 371 109 394 154 q 417 200 417 312 q 417 355 414 369 q 411 382 403 389 q 398 392 385 395 q 347 404 347 430 q 347 442 357 452 q 367 463 387 472 q 433 493 477 505 q 521 517 553 517 q 575 517 582 507 q 589 497 589 465 q 589 458 586 384 q 584 311 584 244 q 584 175 588 150 q 591 125 601 117 q 603 116 630 107 q 657 99 657 75 q 657 63 647 52 q 637 42 617 33 q 570 11 526 -1 q 481 -14 451 -14 q 432 -14 424 -6 q 417 1 417 23 z"},"]":{"x_min":0,"x_max":391,"ha":391,"o":"m 329 637 l 329 -50 q 329 -112 312 -127 q 295 -142 228 -142 l 64 -142 q 32 -142 22 -133 q 11 -124 11 -98 q 11 -71 21 -62 q 30 -52 57 -52 l 119 -52 q 143 -52 152 -43 q 161 -34 161 -12 l 161 599 q 161 622 152 631 q 142 640 119 640 l 57 640 q 31 640 21 649 q 11 658 11 683 q 11 710 22 720 q 33 729 69 729 l 228 729 q 295 729 312 714 q 329 700 329 637 z"},"U":{"x_min":0,"x_max":785,"ha":785,"o":"m 259 316 q 259 255 263 220 q 267 186 276 163 q 291 126 330 104 q 370 83 423 83 q 478 83 513 101 q 549 119 570 157 q 582 178 587 228 q 592 278 592 392 q 592 495 588 553 q 585 611 578 622 q 575 627 547 643 q 520 658 520 683 q 520 710 548 721 q 576 733 645 733 q 713 733 741 721 q 770 709 770 682 q 770 656 740 641 q 711 626 708 622 q 701 612 697 538 q 693 464 693 338 l 693 294 q 693 205 683 161 q 673 117 649 83 q 613 32 548 7 q 484 -19 394 -19 q 234 -19 160 47 q 86 113 86 255 q 86 288 88 361 q 90 434 90 473 q 90 532 86 573 q 82 613 76 622 q 73 627 44 642 q 15 657 15 683 q 15 711 46 722 q 77 733 176 733 q 275 733 306 722 q 337 711 337 683 q 337 657 308 642 q 278 627 275 622 q 267 610 263 535 q 259 459 259 316 z"},"o":{"x_min":0,"x_max":597,"ha":597,"o":"m 26 247 q 26 308 48 359 q 70 411 112 449 q 152 486 203 505 q 253 524 309 524 q 423 524 497 451 q 571 379 571 266 q 571 207 551 156 q 531 106 492 67 q 452 27 402 6 q 352 -14 293 -14 q 175 -14 100 59 q 26 131 26 247 z m 318 78 q 354 78 373 108 q 393 139 393 193 q 393 292 358 363 q 322 433 276 433 q 242 433 223 401 q 204 369 204 311 q 204 215 239 146 q 273 78 318 78 z"},"N":{"x_min":0,"x_max":845,"ha":845,"o":"m 232 458 q 228 459 227 460 q 225 460 224 460 q 220 460 217 457 q 213 453 212 447 q 212 439 211 423 q 210 382 210 369 q 210 258 214 188 q 218 117 225 107 q 229 103 258 88 q 287 73 287 47 q 287 20 259 9 q 231 -3 162 -3 q 90 -3 62 8 q 33 20 33 47 q 33 73 62 88 q 91 103 94 107 q 101 117 105 192 q 109 266 109 392 q 109 492 105 552 q 101 612 94 622 q 90 627 62 642 q 33 656 33 682 q 33 709 60 721 q 87 733 149 733 q 199 733 219 727 q 238 722 253 707 q 321 639 441 507 q 562 375 620 321 q 624 320 625 319 q 627 319 628 319 q 633 319 636 323 q 639 327 640 334 q 641 341 641 350 q 641 358 641 374 q 641 477 636 544 q 632 612 625 622 q 622 626 593 641 q 564 656 564 682 q 564 709 593 721 q 621 733 689 733 q 760 733 789 721 q 818 710 818 682 q 818 656 789 641 q 759 626 756 622 q 749 611 745 536 q 741 460 741 319 q 741 313 742 246 q 743 178 743 117 q 743 39 733 15 q 723 -8 697 -8 q 667 -8 587 82 q 560 112 543 130 q 505 170 440 241 q 269 426 232 458 z"},"+":{"x_min":0,"x_max":833,"ha":833,"o":"m 359 596 l 475 596 l 475 355 l 709 355 l 709 242 l 475 242 l 475 0 l 359 0 l 359 242 l 124 242 l 124 355 l 359 355 z"},"G":{"x_min":0,"x_max":819,"ha":819,"o":"m 582 705 q 592 712 602 716 q 611 719 621 719 q 650 719 675 672 q 699 625 699 566 q 699 541 687 526 q 674 512 652 512 q 632 512 602 544 q 596 550 594 552 q 542 605 499 626 q 456 647 401 647 q 314 647 267 590 q 220 532 220 426 q 220 367 233 314 q 245 261 270 217 q 305 155 350 122 q 396 90 448 90 q 498 90 523 117 q 549 145 549 197 q 549 219 541 233 q 533 247 518 250 q 513 251 502 252 q 444 261 444 297 q 444 329 484 342 q 523 354 642 354 q 742 354 777 342 q 812 329 812 298 q 812 283 804 272 q 795 262 778 256 q 771 254 761 251 q 732 244 725 215 q 724 209 721 195 q 709 131 685 94 q 649 38 582 9 q 515 -20 422 -20 q 243 -20 135 87 q 28 194 28 373 q 28 438 46 495 q 65 553 101 600 q 151 667 233 705 q 315 742 412 742 q 455 742 497 733 q 540 724 582 705 z"},"q":{"x_min":0,"x_max":625,"ha":625,"o":"m 563 118 q 563 13 566 -37 q 569 -87 575 -96 q 578 -100 602 -113 q 626 -126 626 -148 q 626 -173 596 -184 q 565 -195 489 -195 q 402 -195 365 -184 q 327 -173 327 -148 q 327 -125 363 -111 q 379 -104 385 -100 q 392 -95 395 -78 q 398 -62 398 -4 q 398 14 396 21 q 395 29 391 29 q 388 29 376 23 q 320 -6 259 -6 q 159 -6 94 67 q 29 140 29 251 q 29 370 101 447 q 172 525 281 525 q 339 525 396 504 q 454 483 455 483 q 463 483 498 500 q 532 516 550 516 q 562 516 569 509 q 575 502 575 489 q 575 486 574 468 q 563 309 563 118 z m 398 298 q 398 359 379 384 q 360 409 317 409 q 270 409 240 369 q 210 329 210 264 q 210 188 241 143 q 271 98 323 98 q 360 98 379 121 q 398 144 398 189 z"},"d":{"x_min":0,"x_max":634,"ha":634,"o":"m 396 309 q 396 371 378 394 q 360 418 316 418 q 268 418 238 376 q 209 334 209 265 q 209 191 239 147 q 268 104 317 104 q 355 104 376 128 q 396 152 396 198 z m 396 23 l 396 36 q 396 44 395 47 q 394 50 390 50 q 384 50 372 39 q 368 35 366 33 q 342 11 310 0 q 279 -12 243 -12 q 152 -12 90 62 q 27 135 27 244 q 27 302 47 351 q 66 400 105 439 q 143 476 188 495 q 232 514 282 514 q 339 514 382 485 q 389 481 390 481 q 393 481 395 489 q 396 498 396 520 q 396 571 391 590 q 387 609 375 614 q 369 616 359 619 q 324 629 324 654 q 324 668 336 679 q 349 689 384 704 q 427 722 465 732 q 503 741 532 741 q 554 741 561 731 q 569 722 569 691 q 569 676 565 556 q 562 436 562 331 q 562 195 566 159 q 570 124 580 116 q 582 115 609 106 q 636 98 636 74 q 636 62 626 52 q 617 42 596 33 q 551 12 507 0 q 462 -12 430 -12 q 410 -12 403 -5 q 396 2 396 23 z"},"1":{"x_min":0,"x_max":593,"ha":593,"o":"m 225 279 q 225 373 223 432 q 220 491 216 500 q 211 512 202 516 q 192 520 163 520 l 147 520 q 134 520 128 526 q 122 533 122 547 q 122 566 135 577 q 148 588 197 605 q 254 624 308 634 q 362 645 394 645 q 418 645 432 635 q 446 625 446 608 q 446 591 425 576 q 403 561 400 553 q 396 543 395 508 q 393 473 393 347 q 393 269 395 206 q 396 143 398 117 q 400 101 405 94 q 409 87 420 82 q 434 76 459 73 q 496 68 496 45 q 496 15 462 5 q 428 -6 315 -6 q 192 -6 157 5 q 122 16 122 46 q 122 58 130 65 q 138 72 152 72 q 175 72 195 80 q 215 88 218 98 q 222 109 223 147 q 225 185 225 279 z"},"5":{"x_min":0,"x_max":593,"ha":593,"o":"m 269 495 l 252 495 q 219 495 209 487 q 199 479 193 456 l 179 398 q 179 390 183 386 q 186 383 194 383 q 379 351 457 296 q 534 241 534 144 q 534 37 448 -29 q 362 -94 219 -94 q 144 -94 97 -75 q 50 -56 50 -26 q 50 -8 61 2 q 73 12 93 12 q 103 12 139 4 q 176 -4 204 -4 q 269 -4 309 29 q 348 62 348 116 q 348 162 313 188 q 278 214 156 243 q 146 246 126 250 q 57 265 57 293 q 57 310 78 386 q 98 462 130 555 q 140 586 149 604 q 158 623 165 627 q 169 630 179 631 q 188 632 209 632 l 507 632 q 533 632 539 629 q 545 626 545 615 q 545 592 533 557 q 521 522 510 510 q 503 503 489 499 q 475 495 457 495 z"}}}
